<svg width="112" height="112" viewBox="0 0 112 112" fill="none" xmlns="http://www.w3.org/2000/svg">
<path d="M47.8007 76.1333L28 56.328L34.5987 49.7293L47.8007 62.9267L74.1953 36.5273L80.7987 43.1307L47.8007 76.1333Z" fill="#E25100"/>
<path fill-rule="evenodd" clip-rule="evenodd" d="M4.66602 56.0013C4.66602 27.6513 27.6494 4.66797 55.9994 4.66797C84.3494 4.66797 107.333 27.6513 107.333 56.0013C107.333 84.3513 84.3494 107.335 55.9994 107.335C27.6494 107.335 4.66602 84.3513 4.66602 56.0013ZM55.9994 98.0013C50.4838 98.0013 45.0223 96.915 39.9267 94.8043C34.831 92.6936 30.2009 89.5999 26.3009 85.6998C22.4008 81.7997 19.3071 77.1697 17.1964 72.074C15.0857 66.9783 13.9993 61.5168 13.9993 56.0013C13.9993 50.4858 15.0857 45.0243 17.1964 39.9286C19.3071 34.8329 22.4008 30.2029 26.3009 26.3028C30.2009 22.4028 34.831 19.3091 39.9267 17.1984C45.0223 15.0877 50.4838 14.0013 55.9994 14.0013C67.1385 14.0013 77.8213 18.4263 85.6978 26.3028C93.5744 34.1793 97.9994 44.8622 97.9994 56.0013C97.9994 67.1404 93.5744 77.8233 85.6978 85.6998C77.8213 93.5763 67.1385 98.0013 55.9994 98.0013Z" fill="#E25100"/>
</svg>
